# xmcd CD database file
#
# Track frame offsets:
#	150
#	25480
#	67892
#	93672
#	127737
#	159960
#	191262
#	235260
#	277200
#
# Disc length: 4187 seconds
#
# Revision: 0
# Processed by: cddbd v1.5.2PL0 Copyright (c) Steve Scherf et al.
# Submitted via: CDex 1.70beta2
#
DISCID=72105909
DTITLE=Jazzgroove Mothership Orchestra - The Mothership Plays The Music Of Mike Nock
DYEAR=2005
DGENRE=Jazz
TTITLE0=Hadrian's Wall
TTITLE1=Nata Legal
TTITLE2=Floating Cloud, Flowing Water
TTITLE3=Doors
TTITLE4=Everybody Wants To Go To Heaven
TTITLE5=Isospin
TTITLE6=Choose The Beauty Path
TTITLE7=Earthbound
TTITLE8=Blues For....
EXTD=YEAR: 2005
EXTT0=
EXTT1=
EXTT2=
EXTT3=
EXTT4=
EXTT5=
EXTT6=
EXTT7=
EXTT8=
PLAYORDER=
